<?xml version="1.0" encoding="UTF-8"?>
<svg width="97px" height="36px" viewBox="0 0 97 36" version="1.1" xmlns="http://www.w3.org/2000/svg" xmlns:xlink="http://www.w3.org/1999/xlink">
    <!-- Generator: Sketch 51.3 (57544) - http://www.bohemiancoding.com/sketch -->
    <title>Asset 1</title>
    <desc>Created with Sketch.</desc>
    <defs></defs>
    <g id="Page-1" stroke="none" stroke-width="1" fill="none" fill-rule="evenodd">
        <g id="Group-6" transform="translate(-58.000000, -132.000000)" fill-rule="nonzero">
            <g id="Asset-1" transform="translate(58.000000, 132.000000)">
                <polyline id="Shape" fill="#DA3AB3" points="0 0 0 0 0 6.04166667 2.625 6.04166667 2.625 34.9583333 8.66666667 34.9583333 8.66666667 20.5 2.625 20.5 2.625 14.4583333 2.625 14.4583333 8.66666667 14.4583333 8.66666667 6.04166667 0 6.04166667 0 0"></polyline>
                <path d="M12.875,6.9388939e-16 L3.04166667,-4.4408921e-16 C6.15499619,0.0228927466 8.66675083,2.55325298 8.66666667,5.66666667 L8.66666667,6.04166667 L12.8333333,6.04166667 C15.1345198,6.04166667 17,7.90714688 17,10.2083333 C17,12.5095198 15.1345198,14.375 12.8333333,14.375 C15.4943774,14.4174944 18.034564,15.4933382 19.9166667,17.375 C22.7389138,14.4602558 23.5763184,10.1551482 22.052429,6.3950188 C20.5285396,2.63488937 16.9301892,0.127485787 12.875,-4.4408921e-16" id="Shape" fill="#FFC843"></path>
                <path d="M3.04166667,0 L0,0 L0,6.04166667 L8.66666667,6.04166667 L8.66666667,5.66666667 C8.66675083,2.55325298 6.15499619,0.0228927466 3.04166667,0 M2.625,14.4583333 L2.625,20.5 L2.625,14.4583333" id="Shape" fill="#DA2D2F"></path>
                <path d="M20.125,17.4583333 C18.257321,19.3665505 15.7114792,20.459765 13.0416667,20.5 C15.3428531,20.5 17.2083333,22.3654802 17.2083333,24.6666667 L17.2083333,34.9583333 L23.125,34.9583333 L23.125,24.7083333 C23.1215858,21.9903335 22.04312,19.3840411 20.125,17.4583333" id="Shape" fill="#00B3E3"></path>
                <polyline id="Shape" fill="#00299F" points="8.66666667 14.4583333 2.625 14.4583333 2.625 14.4583333 8.66666667 14.4583333 8.66666667 14.4583333"></polyline>
                <path d="M13.0416667,14.4583333 L8.875,14.4583333 L8.875,20.5 L13.0416667,20.5 C15.7114792,20.459765 18.257321,19.3665505 20.125,17.4583333 C18.2428974,15.5766715 15.7027108,14.5008278 13.0416667,14.4583333" id="Shape" fill="#008C3C"></path>
                <polyline id="Shape" fill="#00202A" points="8.66666667 14.4583333 2.625 14.4583333 2.625 20.5 8.66666667 20.5 8.66666667 14.4583333"></polyline>
                <path d="M36.625,13 C30.5498678,13 25.625,17.9248678 25.625,24 C25.625,30.0751322 30.5498678,35 36.625,35 C42.7001322,35 47.625,30.0751322 47.625,24 C47.6021536,17.9343562 42.6906438,13.0228464 36.625,13 M36.625,29.1666667 C33.9255831,29.1188892 31.7605358,26.9201669 31.7544241,24.2203342 C31.7483124,21.5205014 33.9033828,19.3119995 36.6025557,19.252001 C39.3017286,19.1920024 41.5528052,21.3025624 41.6666667,24 C41.7242989,25.3653385 41.2158773,26.6939311 40.2614813,27.6719898 C39.3070853,28.6500486 37.9913403,29.1908498 36.625,29.1666667" id="Shape" fill="#05CE7C"></path>
                <path d="M65.0833333,13 L56.5,13 C53.8625845,12.7966704 51.3337012,14.0885957 49.9527676,16.3447708 C48.5718341,18.6009459 48.5718341,21.4407208 49.9527676,23.6968959 C51.3337012,25.953071 53.8625845,27.2449962 56.5,27.0416667 L60.0833333,27.0416667 C60.6126062,27.0416667 61.0416667,27.4707271 61.0416667,28 C61.0416667,28.5292729 60.6126062,28.9583333 60.0833333,28.9583333 L48.5416667,28.9583333 L48.5416667,35 L60.2083333,35 C64.0743265,34.9999999 67.2083332,31.8659932 67.2083332,28 C67.2083332,24.1340068 64.0743265,21.0000001 60.2083333,21 L56.625,21 C56.1608561,20.9037465 55.8280582,20.4948527 55.8280582,20.0208333 C55.8280582,19.546814 56.1608561,19.1379202 56.625,19.0416667 L65.2083333,19.0416667 L65.2083333,13" id="Shape" fill="#FF4338"></path>
                <path d="M76.5833333,0 L70.5416667,0 L70.5416667,13 L76.5833333,13 L76.5833333,0 M76.5833333,19 L70.5416667,19 L70.5416667,29.1666667 C70.5526783,30.7248258 71.1822353,32.2147881 72.2918341,33.3087587 C73.4014329,34.4027293 74.9001747,35.01109 76.4583333,35 L79.4583333,35.000149 L79.4583333,29.1666667 L76.5833333,29.1666667 L76.5833333,19.0416667" id="Shape" fill="#00B3E3"></path>
                <path d="M76.5833333,13 L76.5833333,19.0416667 L79.4583333,19.0416667 L79.4583333,13 L76.5833333,13 Z M67.7916667,13 L67.7916667,19.0416667 L70.5416667,19.0416667 L70.5416667,13 L67.7916667,13 Z" id="Shape" fill="#FF4338"></path>
                <polyline id="Shape" fill="#002F32" points="76.5833333 13 70.5416667 13 70.5416667 19.0416667 76.5833333 19.0416667 76.5833333 13"></polyline>
                <path d="M89,13 L82.9583333,13 L82.9583333,21.3333333 C83.00057,17.6489684 85.4573867,14.4296915 89,13.4166667 L89,13" id="Shape" fill="#FFC843"></path>
                <path d="M91.1666667,13 C90.4341116,12.9914701 89.7042223,13.0897245 89,13.2916667 L89,21.2083333 C89.0086563,20.3441193 89.5300821,19.567707 90.3267826,19.2327307 C91.1234831,18.8977543 92.043058,19.0682913 92.6666667,19.6666667 L96.8333333,15.5 C95.2914468,13.9705199 93.2133757,13.1034111 91.0416667,13.0833333" id="Shape" fill="#00B3E3"></path>
                <path d="M89,13.2916667 C85.4573867,14.3046915 83.00057,17.5239684 82.9583333,21.2083333 L82.9583333,35.0416667 L89,35.0416667 L89,13.2916667" id="Shape" fill="#008C3C"></path>
            </g>
        </g>
    </g>
</svg>